<?xml version="1.0" encoding="utf-8"?>
<!-- Generator: Adobe Illustrator 25.4.1, SVG Export Plug-In . SVG Version: 6.00 Build 0)  -->
<svg version="1.1" id="Capa_1" xmlns="http://www.w3.org/2000/svg" xmlns:xlink="http://www.w3.org/1999/xlink" x="0px" y="0px"
	 viewBox="0 0 219 45" style="enable-background:new 0 0 219 45;" xml:space="preserve">
<style type="text/css">
	.st0{fill:#FFFFFF;}
</style>
<path class="st0" d="M215.4,0H18.3c0,0-13.4,0.3-15.1,9.1S7,21.9,9.9,22.4s10.2,0.9,13.7-1.1s5-3.2,4.7-4.7s-1.6-4-6.2-1
	S9.9,18.3,9.1,14.9s0.2-8.3,6.5-8.8s23.6-0.2,23.6-0.2s-3.4,1.5-8.6,15.4l-0.1,0.4h-0.6c-5.4,0.3-9.1,1.4-11.3,4.8
	c0,0-3.8,4.9,1,5.5c1.7-0.1,3.3-1.2,4-2.8c0.8-1.6,2.6-1.9,4.3-1.9C23.2,36.1,18,38.2,13,38.2c0,0-4.4,0-1.7-3.7s5-3.6,5-4.7
	s-0.8-6.1-6-2.9S2,37.1,6.3,41s8.9,5,18.6-0.9c4.7-2.9,7.1-7.8,8.8-12.6c1.9,0.1,4,0.1,5.3-0.5c2-1,2.1-1.3,2.1-1.3s-2.9,9,2.6,9.8
	c4.9,0.7,9.5-3,9.5-3s0.1,2.9,2.3,3.1s3.2,0.1,3.6-1.6l0.4-1.7c0,0,4.3,4.9,9.4,3.8s9.4-3.5,10.8-8.8c1.1-3.5-0.5-7.3-3.8-8.8
	c-3.1-1-6.4-0.8-9.3,0.5l-2.1,1.2c0,0,3.3-6.4,3-7.5s-2.6-4.5-4.7-1.8s-5,13.9-7.6,15.8s-4.6,4.4-7.2,3.5s-1-5.5,0.5-7.8
	s0.2-4.8-1.5-4.8s-2.8,1.3-4.7,3.5l-6.7,0.4c1-2.8,2-5.3,3.5-6.9c5-5.4,9.2-8.7,17.8-8.8s159,0,159,0c1.1-0.4,1.9-1.4,1.9-2.6
	C218.2,1.4,217,0.1,215.4,0C215.4,0,215.4,0,215.4,0z M62.3,25.6l0.3-0.9c0.3-0.8,0.9-1.4,1.7-1.7c9.3-4,11.2,1.3,11.2,1.5
	s0.9,1.9-3.4,4.9c-2.7,1.9-6.2,0.7-8.5-0.3C62.3,28.4,61.8,26.9,62.3,25.6z"/>
<path class="st0" d="M101.3,20.1c-0.2-1.9-1.3-2.6-3.3-2.6s-6,0.7-8.1,2.5l-0.9,0.8c0,0-1.5-4-4.6-3.3c-0.1,0-2.6,1.6-2,3.4
	s2.2,2.2,2,3.5s-1.8,5.1-2.5,7.3s0.2,4.8,3.6,3.9s2.6-9,6.4-11.2c2.3-1.3,4.9-1.8,7.5-1.4C100.6,22.5,101.3,21.3,101.3,20.1z"/>
<path class="st0" d="M213.6,18.5c-4.8-1.4-9.8-1.8-14.7-1.1c0,0-4.2-0.3-6.3,5.2s-2.1,7.1-3.6,7.6s-4.4-0.2-3.4-3.5s2.5-5.3,2.4-6.9
	c-0.2-1.5-1.5-2.5-3-2.4c-0.5,0.1-1,0.3-1.5,0.6c-2,1.7-1.7,1.9-1.7,1.9s-5.7-4.7-13.7-0.6c0,0-11.8,11.9-18.9,11.4s-9.8-1-9.2-4.1
	s3.2-4.9,8.6-3.2s7,1.7,7.1-1.2s-3.8-4.8-8.9-4.7s-8.7,0.1-12.5,5.8s-5.4,7.7-7.6,6.8s-1.8-2.6-0.1-6.9s-0.8-6-2.5-5.8
	s-2.7,3.5-2.7,3.5c-1.3-2.2-3.7-3.6-6.2-3.5c-3.6-0.1-7.1,1-10,3.1c-4.5,3.5-6.3,6.8-3.2,12.5s14.4,1.7,14.6,1.7s1.8-1.6,2.5-1.2
	s1.7,2.2,4.9,2.6s8-1.5,8.6-1.8s1.5-0.9,1.5-0.9s2,2.5,8.1,2.6s12.9-0.4,17.4-3.2l2.1-1.7c0,0,3.8,4.8,7.7,4.9s6.5-0.3,9.6-2
	c0.8,1.3,2.2,2.2,3.7,2.2c2,0,4-0.9,5.4-2.4l0.6-1l-3.1,7.3c0,0-0.6,4.2,1.3,4.2s3.5-0.4,4.4-2.8s3.4-8.3,3.4-8.3s19.6,2.4,21.5-5
	S214.1,18.8,213.6,18.5z M118.5,28.1c-0.2,1.4-0.2,1.6-0.2,1.6s-5.8,2.8-8.7,1.8s-3.5-2.5-2.9-4.9s4.3-6.8,12.5-1.5
	C119.1,25.1,118.7,26.6,118.5,28.1z M179.5,28.1c-0.2,1.4-0.2,1.6-0.2,1.6s-5.8,2.8-8.7,1.8s-3.5-2.5-2.9-4.9s4.3-6.8,12.5-1.5
	C180.1,25.1,179.7,26.6,179.5,28.1L179.5,28.1z M210.9,26.6c-0.6,3.2-14.4,2-14.4,2s2.5-6.4,2.6-6.4
	C210.4,21.1,211.4,23.4,210.9,26.6z"/>
</svg>
